HIERARCHY
ROOT Hips
{
	OFFSET -3.958830 18.904000 13.208200
	CHANNELS 6 Xposition Yposition Zposition Zrotation Yrotation Xrotation 
	JOINT LHipJoint
	{
		OFFSET 0.000000 0.000000 0.000000
		CHANNELS 3 Zrotation Yrotation Xrotation
		JOINT LeftUpLeg
		{
			OFFSET 1.800000 -1.400000 0.085000
			CHANNELS 3 Zrotation Yrotation Xrotation
			JOINT LeftLeg
			{
				OFFSET 2.215000 -6.000000 0.000000
				CHANNELS 3 Zrotation Yrotation Xrotation
				JOINT LeftFoot
				{
					OFFSET 2.500000 -6.900000 0.000000
					CHANNELS 3 Zrotation Yrotation Xrotation
					JOINT LeftToeBase
					{
						OFFSET 0.200000 -0.500000 1.950000
						CHANNELS 3 Zrotation Yrotation Xrotation
						End Site
						{
							OFFSET 0.000000 0.000000 0.000000
						}
					}
				}
			}
		}
	}
	JOINT RHipJoint
	{
		OFFSET 0.000000 0.000000 0.000000
		CHANNELS 3 Zrotation Yrotation Xrotation
		JOINT RightUpLeg
		{
			OFFSET -1.800000 -1.400000 0.085000
			CHANNELS 3 Zrotation Yrotation Xrotation
			JOINT RightLeg
			{
				OFFSET -2.215000 -6.000000 0.000000
				CHANNELS 3 Zrotation Yrotation Xrotation
				JOINT RightFoot
				{
					OFFSET -2.500000 -6.900000 0.000000
					CHANNELS 3 Zrotation Yrotation Xrotation
					JOINT RightToeBase
					{
						OFFSET -0.200000 -0.500000 1.950000
						CHANNELS 3 Zrotation Yrotation Xrotation
						End Site
						{
							OFFSET 0.000000 0.000000 0.000000
						}
					}
				}
			}
		}
	}
	JOINT LowerBack
	{
		OFFSET 0.000000 0.000000 0.000000
		CHANNELS 3 Zrotation Yrotation Xrotation
		JOINT Spine
		{
			OFFSET -0.087000 1.940000 -0.288900
			CHANNELS 3 Zrotation Yrotation Xrotation
			JOINT Spine1
			{
				OFFSET 0.000000 1.950000 0.060000
				CHANNELS 3 Zrotation Yrotation Xrotation
				JOINT Neck
				{
					OFFSET 0.000000 0.000000 0.000000
					CHANNELS 3 Zrotation Yrotation Xrotation
					JOINT Neck1
					{
						OFFSET 0.000000 1.600000 0.340000
						CHANNELS 3 Zrotation Yrotation Xrotation
						JOINT Head
						{
							OFFSET 0.000000 1.667000 -0.240000
							CHANNELS 3 Zrotation Yrotation Xrotation
							End Site
							{
								OFFSET 0.000000 0.000000 0.000000
							}
						}
					}
				}
				JOINT LeftShoulder
				{
					OFFSET 0.000000 0.000000 0.000000
					CHANNELS 3 Zrotation Yrotation Xrotation
					JOINT LeftArm
					{
						OFFSET 2.700000 1.550000 -0.730000
						CHANNELS 3 Zrotation Yrotation Xrotation
						JOINT LeftForeArm
						{
							OFFSET 5.450000 0.000000 0.000000
							CHANNELS 3 Zrotation Yrotation Xrotation
							JOINT LeftHand
							{
								OFFSET 3.450000 0.000000 0.000000
								CHANNELS 3 Zrotation Yrotation Xrotation
								JOINT LeftHandIndex1
								{
									OFFSET 0.750000 0.000000 0.000000
									CHANNELS 3 Zrotation Yrotation Xrotation
									End Site
									{
										OFFSET 0.000000 0.000000 0.000000
									}
								}
							}
						}
					}
				}
				JOINT RightShoulder
				{
					OFFSET 0.000000 0.000000 0.000000
					CHANNELS 3 Zrotation Yrotation Xrotation
					JOINT RightArm
					{
						OFFSET -2.700000 1.550000 -0.730000
						CHANNELS 3 Zrotation Yrotation Xrotation
						JOINT RightForeArm
						{
							OFFSET -5.450000 0.000000 0.000000
							CHANNELS 3 Zrotation Yrotation Xrotation
							JOINT RightHand
							{
								OFFSET -3.450000 0.000000 0.000000
								CHANNELS 3 Zrotation Yrotation Xrotation
								JOINT RightHandIndex1
								{
									OFFSET -0.750000 0.000000 0.000000
									CHANNELS 3 Zrotation Yrotation Xrotation
									End Site
									{
										OFFSET 0.000000 0.000000 0.000000
									}
								}
							}
						}
					}
				}
			}
		}
	}
}
MOTION
Frames: 4
Frame Time: 0.016667
1.057220 14.948900 -1.646710 -14.947353 12.721957 54.209622 -16.374102 8.651049 7.805515 6.829951 -32.843027 -73.654055 -31.748156 9.413283 29.499900 1.108475 5.543341 2.373307 0.929610 1.004770 0.992920 18.320352 -5.015617 4.515950 -7.882293 4.531946 -73.083340 -37.476889 4.704353 39.557833 -1.417249 -7.080116 1.660726 0.008690 -0.731530 0.262200 -1.949108 -5.910232 -11.074781 4.310172 -7.853494 72.350996 7.200675 -6.319980 -0.297071 3.342775 5.150556 -12.425505 6.238275 3.790873 47.816152 -7.644460 13.154690 -21.187510 0.009542 -33.505990 2.345890 10.261695 -24.147304 -7.848087 16.774705 -0.649754 -1.144671 -3.759704 3.228114 0.225890 -0.344950 0.528080 -0.138220 -6.941991 28.319533 1.000322 -15.191382 17.176632 -17.726126 -35.721965 45.799973 -11.770997 2.174662 -1.455645 0.739560 -0.470030 -0.530380 -0.149790 
1.042400 14.884570 -1.675300 -16.019722 13.430471 53.826341 -16.306165 8.612606 7.743517 1.660047 -32.854713 -69.924580 -27.473905 8.763263 29.803086 0.962361 5.067473 2.520996 0.917320 0.986770 1.002530 18.373985 -5.088022 4.605189 -5.842863 5.487115 -73.938854 -38.152936 4.304033 35.760116 -1.313549 -6.591163 1.811586 0.000180 -0.721070 0.263930 -2.099273 -5.562423 -11.036014 5.874665 -9.257048 71.186351 5.217961 -6.634957 0.300645 3.925870 4.891618 -12.240155 5.881069 3.434981 47.708343 -8.959510 12.690730 -20.868500 -0.081317 -32.991985 3.089766 10.604777 -23.827984 -7.175385 14.515811 -1.638868 -1.004854 -3.744486 3.185992 0.208370 -0.327180 0.508490 -0.160540 -8.024024 27.889954 0.358545 -15.233384 17.552412 -17.977947 -35.675762 47.768614 -12.306907 2.149155 -1.450933 0.738620 -0.467520 -0.511350 -0.151820 
0.967870 14.786990 -1.754540 -19.527037 14.578024 54.683811 -16.196620 8.317193 7.694205 -2.414548 -31.914432 -69.358416 -22.200066 8.749612 32.802557 0.855345 5.143653 2.520354 0.877060 0.946290 0.934740 18.504772 -4.984735 4.954475 -0.166404 9.819814 -76.541543 -42.289880 4.003757 27.742425 -1.188690 -6.038257 2.010453 0.026240 -0.582550 0.269930 -2.381613 -4.854605 -11.069087 8.590288 -10.160712 66.725257 2.951141 -5.962011 2.385851 4.198331 3.814996 -11.458486 4.006221 3.767102 46.061908 -7.948530 11.342580 -17.833230 0.744651 -31.279362 3.709104 9.754950 -24.965166 -5.423156 12.085228 -0.857823 -0.840779 -3.836474 3.124245 0.136990 -0.226080 0.409780 -0.147890 -9.212220 27.107213 -0.238780 -16.044879 17.416979 -18.165716 -40.502578 50.238259 -15.390242 2.057387 -1.454041 0.694360 -0.408600 -0.451320 -0.124430 
0.916240 14.676680 -1.805020 -24.074893 15.346051 54.171629 -16.036476 7.906308 7.710894 -6.364339 -30.600934 -69.126026 -14.172737 7.668552 36.474434 0.652711 5.005357 2.561486 0.899020 0.969260 0.908860 18.691060 -5.012326 5.258706 4.343698 14.183141 -77.203281 -45.084995 3.977068 23.826680 -1.157452 -5.889245 2.070887 0.102120 -0.508830 0.241620 -2.817826 -3.833371 -11.078892 12.167150 -11.470390 63.513478 -0.698590 -5.135216 4.180226 4.539717 2.452844 -10.612332 1.611846 4.488706 45.476096 -5.487490 9.676840 -17.183150 2.239889 -29.898971 4.113632 8.242949 -26.251111 -4.516190 12.998507 0.074575 -0.956339 -3.886527 3.106930 0.129450 -0.189670 0.348020 -0.134060 -11.307024 26.538820 -1.331716 -17.531313 17.783088 -18.564443 -44.754689 52.701941 -18.338090 1.963834 -1.445954 0.637970 -0.333190 -0.421410 -0.124990 
